<?xml version="1.0" encoding="UTF-8" standalone="no" ?>
<!DOCTYPE svg PUBLIC "-//W3C//DTD SVG 1.1//EN" "http://www.w3.org/Graphics/SVG/1.1/DTD/svg11.dtd">
<svg xmlns="http://www.w3.org/2000/svg" xmlns:xlink="http://www.w3.org/1999/xlink" version="1.1" width="1280" height="1024" viewBox="0 0 1280 1024" xml:space="preserve">
<desc>Created with Fabric.js 5.3.0</desc>
<defs>
</defs>
<g transform="matrix(1 0 0 1 640 512)" id="background-logo"  >
<rect style="stroke: none; stroke-width: 0; stroke-dasharray: none; stroke-linecap: butt; stroke-dashoffset: 0; stroke-linejoin: miter; stroke-miterlimit: 4; fill: rgb(7,43,36); fill-rule: nonzero; opacity: 1;"  paint-order="stroke"  x="-640" y="-512" rx="0" ry="0" width="1280" height="1024" />
</g>
<g transform="matrix(1.9211538461538462 0 0 1.9211538461538462 640 396.96949180769235)" id="logo-logo"  >
<g style=""  paint-order="stroke"   >
		<g transform="matrix(0.5040375314569328 0 0 0.5040375314569328 -14.252391467526365 34.02746608342068)"  >
<path style="stroke: none; stroke-width: 1; stroke-dasharray: none; stroke-linecap: butt; stroke-dashoffset: 0; stroke-linejoin: miter; stroke-miterlimit: 4; fill: rgb(35,132,118); fill-rule: nonzero; opacity: 1;"  paint-order="stroke"  transform=" translate(-479.0652471974693, -518.4137860115927)" d="M 514.4713214 430.3913043 C 468.2113116 430.3913043 424.0813068 435.3112872 383.77130919999996 444.2312701 L 393.861275 501.9812701 C 414.34131649999995 502.321297 430.611275 507.6413043 430.611275 514.1712725 C 430.611275 520.9212725 413.2013019 526.3913042 391.7412799 526.3913042 C 370.2713092 526.3913042 352.8712848 520.9212725 352.8712848 514.1712725 C 352.8712848 508.401314 365.60132630000004 503.56128709999996 382.7313312 502.29126759999997 L 373.0213092 446.7212603 C 339.96131160000004 454.7612994 309.6613238 465.5313189 283.1212848 478.4912798 C 272.2313312 512.8612749 281.0813068 536.3012774 282.0112994 538.5813066999999 L 282.5413287 539.7113115999999 L 282.7612994 540.611275 C 290.65131399999996 566.3112871999999 313.02130919999996 581.821297 330.40131399999996 590.2912676999999 C 345.22132129999994 597.5412676999999 362.58130669999997 602.861275 381.81128709999996 606.1212847999999 C 556.1022722 613.0887530999998 656.573189 502.6650469999999 680.3913041999999 453.3313067999999 C 631.1613236999999 438.70130189999986 574.6112748999999 430.39130439999985 514.4713212999999 430.39130439999985 Z" stroke-linecap="round" />
</g>
		<g transform="matrix(0.5040375314569328 0 0 0.5040375314569328 9.371438766446033 15.502031316244711)"  >
<path style="stroke: none; stroke-width: 1; stroke-dasharray: none; stroke-linecap: butt; stroke-dashoffset: 0; stroke-linejoin: miter; stroke-miterlimit: 4; fill: rgb(255,188,0); fill-rule: nonzero; opacity: 1;"  paint-order="stroke"  transform=" translate(-525.9344360169748, -481.6597079697695)" d="M 573.6812824 642.7013019 C 427.7313312 687.5412676999999 288.0413288 654.3112873 261.6713337 568.4712604 C 245.4412922 515.6712726000001 275.8812946 455.2612995 335.701302 406.15131410000004 C 269.24128 479.78131900000005 296.4312825 541.1012653 296.4312825 541.1012653 C 318.8612752 614.1312946 440.64130450000005 641.5012897 568.4213338 602.2412799 C 696.2013020999999 562.9812701 781.6013264999999 471.9613116 759.1713338 398.9412921 C 740.6328206 338.6062701 654.2591633999999 309.43408999999997 552.7211384999999 323.2756427 C 553.3805623 324.7671588 553.9370809 326.3141559 554.3530965 327.92914609999997 C 559.959786 349.69513729999994 540.267159 372.9490436 509.52076009999996 380.8689654 C 478.7743612 388.78894829999996 450.29792069999996 377.94293999999996 444.69123129999997 356.17700979999995 C 439.08454179999995 334.4110186 458.77710779999995 311.1569291999999 489.5235067 303.23694629999994 C 514.0305257 296.92420219999997 537.0816732 302.54309859999995 548.2728353 316.10199759999995 C 666.4769369 299.20185109999994 768.1096273 334.18573779999997 790.2013021 406.0913164 C 816.5712972 491.9312822 719.6312948 597.8612749 573.6812826 642.7013018 Z" stroke-linecap="round" />
</g>
		<g transform="matrix(0.5040375314569328 0 0 0.5040375314569328 -123.03048280574475 -46.585680874865375)"  >
<path style="stroke: none; stroke-width: 1; stroke-dasharray: none; stroke-linecap: butt; stroke-dashoffset: 0; stroke-linejoin: miter; stroke-miterlimit: 4; fill: rgb(0,96,78); fill-rule: nonzero; opacity: 1;"  paint-order="stroke"  transform=" translate(-263.2517719116256, -358.47897574999996)" d="M 254.4594108 322.0713128 L 264.8283373 341.1400844 C 266.49221239999997 344.20000139999996 270.37617639999996 345.2449072 273.34503129999996 343.42351429999997 C 278.0478363 340.5383427 284.9268929 336.51735469999994 290.2995418 334.20240429999996 L 275.3591096 332.59592159999994 L 281.634356 316.89489649999996 L 298.41482640000004 318.8335408 L 305.69774470000004 333.08256639999996 C 307.1927400000001 336.00752389999997 306.01569430000006 339.586488 303.07057030000004 341.04135299999996 C 293.64013760000006 345.6999029 274.01031550000005 355.76959409999995 262.59717620000004 364.27660309999993 C 247.17748290000003 375.7699761999999 220.15712200000004 400.06305499999996 220.15712200000004 400.06305499999996 C 220.15712200000004 400.06305499999996 221.08980010000005 364.42740389999994 254.45941080000006 322.07131269999996 Z" stroke-linecap="round" />
</g>
		<g transform="matrix(0.5040375314569328 0 0 0.5040375314569328 -92.99587386368054 -28.421514752220986)"  >
<path style="stroke: none; stroke-width: 1; stroke-dasharray: none; stroke-linecap: butt; stroke-dashoffset: 0; stroke-linejoin: miter; stroke-miterlimit: 4; fill: rgb(35,132,118); fill-rule: nonzero; opacity: 1;"  paint-order="stroke"  transform=" translate(-322.839812618135, -394.5163043)" d="M 392.5213092 549.8913043 L 378.9813312 546.4212726 L 338.9312824 313.28131899999994 C 312.9213337 315.37128479999996 287.0012897 327.2312701999999 277.2612995 332.12128479999996 C 275.0213093 333.24127989999994 272.29132880000003 332.33130679999994 271.1713337 330.08130679999994 L 254.0813068 295.7312701999999 C 252.1713337 291.88129459999993 253.3012775 287.21131169999995 256.7713092 284.67127259999995 C 286.9813312 262.4812701999999 317.8913043 255.18128239999996 328.61127500000003 253.19129209999994 L 327.39130430000006 246.07129699999993 C 326.7713092000001 242.34131649999992 329.69129210000006 239.14130429999994 333.23133120000006 239.14130429999994 C 333.7213214000001 239.14130429999994 334.2213214000001 239.20130189999995 334.7213214000001 239.33130669999994 C 336.99127990000005 239.91126279999995 338.7013019000001 241.77130909999994 339.1013263000001 244.08130669999994 L 392.5213092000001 549.8913042999999 Z" stroke-linecap="round" />
</g>
		<g transform="matrix(0.5040375314569328 0 0 0.5040375314569328 -6.105700839975384 -54.82511387768943)"  >
<path style="stroke: none; stroke-width: 1; stroke-dasharray: none; stroke-linecap: butt; stroke-dashoffset: 0; stroke-linejoin: miter; stroke-miterlimit: 4; fill: rgb(255,255,255); fill-rule: nonzero; opacity: 1;"  paint-order="stroke"  transform=" translate(-495.2281123, -342.1321117)" d="M 535.7186306 331.7021465 C 539.4097614 346.0316093 524.2737915 362.3175886 501.9114958 368.0778993 C 479.54920000000004 373.83821 458.4287248 366.8915397 454.737594 352.5620769 C 451.0464632 338.23261410000003 466.1824331 321.9466348 488.54472880000003 316.18632410000004 C 510.9070246 310.42601340000004 532.0274998 317.37268370000004 535.7186306 331.7021465 Z" stroke-linecap="round" />
</g>
		<g transform="matrix(0.5040375314569328 0 0 0.5040375314569328 5.065408675173558 -54.04554309779752)"  >
<path style="stroke: none; stroke-width: 1; stroke-dasharray: none; stroke-linecap: butt; stroke-dashoffset: 0; stroke-linejoin: miter; stroke-miterlimit: 4; fill: rgb(216,188,72); fill-rule: nonzero; opacity: 1;"  paint-order="stroke"  transform=" translate(-517.3913616970411, -343.6787639455948)" d="M 522.0787353 353.3424859 L 522.0850197999999 353.3848357 C 520.1620886999999 355.0121102 518.0276333999999 356.5133765 515.7222879 357.8707873 C 514.5193102 357.2425726 513.6249603 356.06877000000003 513.4112606 354.6286875 C 513.0558536 352.23366550000003 514.7085399 350.0050398 517.0996841 349.6502082 C 519.4947061 349.2948012 521.7233284 350.947464 522.0787353 353.3424859 Z M 505.6961594 357.0289206 C 503.8363858 357.3048999 502.5548122 359.0377044 502.830795 360.8975015 C 502.95878600000003 361.7600093 503.40322690000005 362.50078629999996 504.0269931 363.0181881 C 505.92963360000005 362.4210293 507.7729256 361.74214939999996 509.5524499 360.97831329999997 C 509.6149906 360.63060349999995 509.6201635 360.267772 509.5653122 359.89813929999997 C 509.2893294 358.0383422 507.5559565 356.7529378 505.6961594 357.02892069999996 Z M 525.7991759 340.9687712 C 523.4503815 341.3173183 521.8272196 343.5061587 522.1757666 345.8549531 C 522.4746064 347.8687795 524.1220366 349.3440301 526.0662209 349.5041534 C 527.8718123 347.4574561 529.2698123 345.3689216 530.2620588999999 343.2776444 L 530.2614904 343.2738136 C 529.4451855 341.6712899 527.6743663999999 340.6905041 525.7991758 340.9687712 Z M 531.5714501 332.7689614 C 531.3212032 331.79866350000003 530.9627285 330.8680368 530.5043065 329.97979150000003 C 529.8777354 329.76186770000004 529.1902962 329.6907259 528.485672 329.7952879 C 526.1368541 330.1438385 524.5169745000001 332.3282527 524.865525 334.6770705 C 525.2140721000001 337.0258649 527.3990582 338.64959880000004 529.7478761000001 338.3010482 C 530.5911126000001 338.1759169 531.3400594000001 337.8129134 531.9389102000001 337.28723620000005 C 532.0681907000002 335.74509680000006 531.9498662000001 334.23182230000003 531.5714501000001 332.76896120000004 Z M 518.5590834 334.677241 C 517.1316724999999 334.8890603 516.1462409 336.2179188 516.3580601 337.6453297 C 516.5698793 339.0727406 517.8987379 340.0581722 519.3261487999999 339.84635299999997 C 520.7535596999999 339.63453379999993 521.7389913 338.30567519999994 521.5271720999999 336.87826429999996 C 521.3153528999999 335.45085339999997 519.9864942999999 334.46542179999994 518.5590834 334.677241 Z M 521.6078429 324.3609102 C 520.5332483000001 324.52037359999997 519.7913879 325.52077529999997 519.9508513000001 326.5953699 C 520.1103147000001 327.6699645 521.1107164000001 328.4118249 522.1853110000001 328.2523615 C 523.2599056 328.0928981 524.0017660000001 327.0924964 523.8423026 326.0179018 C 523.6828392 324.9433072 522.6824375 324.2014468 521.6078429 324.3609102 Z M 509.4138511 345.4995989 C 507.9864402 345.7114182 507.0010086 347.04027670000005 507.2128278 348.46768760000003 C 507.42464700000005 349.8950985 508.75350560000004 350.88053010000004 510.1809165 350.6687109 C 511.6083274 350.45689169999997 512.593759 349.1280331 512.3819398 347.7006222 C 512.1701206000001 346.2732113 510.84126200000003 345.2877797 509.41385110000004 345.4995989 Z" stroke-linecap="round" />
</g>
		<g transform="matrix(0.5040375314569328 0 0 0.5040375314569328 22.179967371427892 40.694631774012805)"  >
<path style="stroke: none; stroke-width: 1; stroke-dasharray: none; stroke-linecap: butt; stroke-dashoffset: 0; stroke-linejoin: miter; stroke-miterlimit: 4; fill: rgb(0,96,78); fill-rule: nonzero; opacity: 1;"  paint-order="stroke"  transform=" translate(-551.3462909, -531.6413043499999)" d="M 720.8812946 467.4112628 C 714.3712848 479.58130669999997 705.3212970000001 491.92127259999995 693.8313068 504.1513141 C 658.3913044 541.9312824 605.0012897 573.1413043 543.4912799 592.0412676999999 C 505.361275 603.7512896999999 466.00128970000003 609.9513019 429.6513141 609.9513019 C 412.781319 609.9513019 396.7313312 608.6513140999999 381.8112872 606.1212848 C 545.5612871999999 603.9312824 647.5213091999999 494.8012775 680.3913043 453.3313068 C 694.5213092 457.5213092 708.0413287 462.2312702 720.8812945 467.4112629 Z" stroke-linecap="round" />
</g>
</g>
</g>
<g transform="matrix(1.9211538461538462 0 0 1.9211538461538462 639.1513302884615 692.1487189675045)" id="text-logo"  >
<g style=""  paint-order="stroke"   >
		<g transform="matrix(1 0 0 1 0 0)" id="text-logo-path-0"  >
<path style="stroke: none; stroke-width: 0; stroke-dasharray: none; stroke-linecap: butt; stroke-dashoffset: 0; stroke-linejoin: miter; stroke-miterlimit: 4; fill: rgb(255,255,255); fill-rule: nonzero; opacity: 1;"  paint-order="stroke"  transform=" translate(-137.57, 20.09)" d="M 7.7 -40.01 L 33.74 -40.01 L 32.38 -32.32 L 16.07 -32.32 L 14.59 -23.71 L 26.79 -23.71 L 25.42 -16.3 L 13.22 -16.3 L 10.37 0 L 0.63 0 L 7.7 -40.01 Z M 60.02 -40.01 L 54.26 -7.41 L 67.03 -7.41 L 65.72 0 L 43.21 0 L 50.27 -40.01 L 60.02 -40.01 Z M 100.83 0.4 L 100.83 0.4 Q 95.76 0.4 91.91 -1.71 Q 88.07 -3.82 85.96 -7.64 Q 83.85 -11.46 83.85 -16.42 L 83.85 -16.42 Q 83.85 -23.43 86.87 -28.93 Q 89.89 -34.43 95.28 -37.51 Q 100.66 -40.58 107.5 -40.58 L 107.5 -40.58 Q 112.63 -40.58 116.51 -38.5 Q 120.38 -36.42 122.49 -32.63 Q 124.6 -28.84 124.6 -23.94 L 124.6 -23.94 Q 124.6 -16.93 121.58 -11.37 Q 118.56 -5.81 113.15 -2.71 Q 107.73 0.4 100.83 0.4 Z M 102.32 -8.61 L 102.32 -8.61 Q 106.08 -8.61 108.93 -10.54 Q 111.78 -12.48 113.34 -15.76 Q 114.91 -19.04 114.91 -22.86 L 114.91 -22.86 Q 114.91 -26.96 112.63 -29.3 Q 110.35 -31.64 106.25 -31.64 L 106.25 -31.64 Q 102.49 -31.64 99.61 -29.7 Q 96.73 -27.76 95.16 -24.54 Q 93.59 -21.32 93.59 -17.44 L 93.59 -17.44 Q 93.59 -13.34 95.87 -10.97 Q 98.15 -8.61 102.32 -8.61 Z M 157.03 0.4 L 157.03 0.4 Q 151.96 0.4 148.11 -1.71 Q 144.27 -3.82 142.16 -7.64 Q 140.05 -11.46 140.05 -16.42 L 140.05 -16.42 Q 140.05 -23.43 143.07 -28.93 Q 146.09 -34.43 151.48 -37.51 Q 156.86 -40.58 163.7 -40.58 L 163.7 -40.58 Q 168.83 -40.58 172.71 -38.5 Q 176.59 -36.42 178.69 -32.63 Q 180.8 -28.84 180.8 -23.94 L 180.8 -23.94 Q 180.8 -16.93 177.78 -11.37 Q 174.76 -5.81 169.35 -2.71 Q 163.93 0.4 157.03 0.4 Z M 158.52 -8.61 L 158.52 -8.61 Q 162.28 -8.61 165.13 -10.54 Q 167.98 -12.48 169.55 -15.76 Q 171.11 -19.04 171.11 -22.86 L 171.11 -22.86 Q 171.11 -26.96 168.83 -29.3 Q 166.55 -31.64 162.45 -31.64 L 162.45 -31.64 Q 158.69 -31.64 155.81 -29.7 Q 152.93 -27.76 151.36 -24.54 Q 149.8 -21.32 149.8 -17.44 L 149.8 -17.44 Q 149.8 -13.34 152.08 -10.97 Q 154.36 -8.61 158.52 -8.61 Z M 229.48 -27.13 L 229.48 -27.13 Q 228.91 -23.66 226.8 -20.78 Q 224.69 -17.9 221.07 -16.13 Q 217.46 -14.36 212.55 -14.36 L 212.55 -14.36 L 206.51 -14.36 L 203.95 0 L 194.2 0 L 201.27 -40.01 L 217.06 -40.01 Q 223.33 -40.01 226.52 -37.25 Q 229.71 -34.48 229.71 -29.75 L 229.71 -29.75 Q 229.71 -28.33 229.48 -27.13 Z M 207.88 -22 L 213.12 -22 Q 218.59 -22 219.56 -27.13 L 219.56 -27.13 Q 219.68 -28.04 219.68 -28.44 L 219.68 -28.44 Q 219.68 -30.27 218.51 -31.26 Q 217.34 -32.26 214.95 -32.26 L 214.95 -32.26 L 209.65 -32.26 L 207.88 -22 Z M 257.07 0.4 L 257.07 0.4 Q 250.57 0.4 246.5 -2.42 Q 242.42 -5.24 242.42 -10.43 L 242.42 -10.43 Q 242.42 -10.94 242.53 -11.97 L 242.53 -11.97 L 252.68 -11.97 Q 252.51 -9.8 253.71 -8.55 Q 254.9 -7.3 257.36 -7.3 L 257.36 -7.3 Q 259.58 -7.3 260.86 -8.27 Q 262.14 -9.23 262.14 -11 L 262.14 -11 Q 262.14 -12.83 260.52 -13.96 Q 258.89 -15.11 255.47 -16.53 L 255.47 -16.53 Q 252.17 -17.9 250.09 -19.12 Q 248.01 -20.35 246.47 -22.46 Q 244.93 -24.57 244.93 -27.76 L 244.93 -27.76 Q 244.87 -31.69 246.87 -34.6 Q 248.86 -37.51 252.4 -39.05 Q 255.93 -40.58 260.49 -40.58 L 260.49 -40.58 Q 264.59 -40.58 267.79 -39.3 Q 270.98 -38.02 272.75 -35.6 Q 274.51 -33.17 274.51 -29.87 L 274.51 -29.87 Q 274.51 -29.01 274.45 -28.61 L 274.45 -28.61 L 264.08 -28.61 Q 264.14 -28.84 264.14 -29.3 L 264.14 -29.3 Q 264.14 -30.89 263.03 -31.89 Q 261.91 -32.89 259.98 -32.89 L 259.98 -32.89 Q 257.93 -32.89 256.64 -31.89 Q 255.36 -30.89 255.36 -29.18 L 255.36 -29.18 Q 255.36 -27.47 256.96 -26.31 Q 258.55 -25.14 261.91 -23.6 L 261.91 -23.6 Q 265.28 -22.06 267.42 -20.75 Q 269.55 -19.44 271.09 -17.24 Q 272.63 -15.05 272.63 -11.86 L 272.63 -11.86 Q 272.63 -8.32 270.75 -5.53 Q 268.87 -2.74 265.33 -1.17 Q 261.8 0.4 257.07 0.4 Z" stroke-linecap="round" />
</g>
</g>
</g>
</svg>