<?xml version="1.0" encoding="UTF-8" standalone="no"?>
<svg xmlns="http://www.w3.org/2000/svg" width="456" height="456" viewBox="8 -3 456 456">
<path d="M 253,422 Z" fill="#003C20" fill-rule="evenodd" stroke="#000000" stroke-width="1.5"/>
<path d="M 232,422 Z" fill="#003C20" fill-rule="evenodd" stroke="#000000" stroke-width="1.5"/>
<path d="M 207,416 L 207,417 L 206,418 L 206,419 L 207,420 L 208,420 L 210,418 L 209,417 L 208,417 Z" fill="#003C20" fill-rule="evenodd" stroke="#000000" stroke-width="1.5"/>
<path d="M 201,416 Z" fill="#003C20" fill-rule="evenodd" stroke="#000000" stroke-width="1.5"/>
<path d="M 283,414 L 281,416 L 281,417 L 279,419 L 281,419 L 282,418 L 288,418 L 289,417 L 290,417 L 291,418 L 292,417 L 294,417 L 295,416 L 292,416 L 291,417 L 285,417 L 283,415 Z" fill="#003C20" fill-rule="evenodd" stroke="#000000" stroke-width="1.5"/>
<path d="M 175,413 L 174,414 L 175,415 L 175,416 L 179,416 L 178,416 L 176,414 L 176,413 Z" fill="#003C20" fill-rule="evenodd" stroke="#000000" stroke-width="1.5"/>
<path d="M 160,412 Z" fill="#003C20" fill-rule="evenodd" stroke="#000000" stroke-width="1.5"/>
<path d="M 171,410 L 168,413 L 167,413 L 169,413 L 170,412 L 170,411 Z" fill="#003C20" fill-rule="evenodd" stroke="#000000" stroke-width="1.5"/>
<path d="M 263,409 Z" fill="#003C20" fill-rule="evenodd" stroke="#000000" stroke-width="1.5"/>
<path d="M 150,409 Z" fill="#003C20" fill-rule="evenodd" stroke="#000000" stroke-width="1.5"/>
<path d="M 311,401 L 311,402 L 310,403 L 310,404 L 309,405 L 308,405 L 309,406 L 307,408 L 307,409 L 306,410 L 306,412 L 304,414 L 305,415 L 308,415 L 308,411 L 309,410 L 309,407 L 310,406 L 310,404 L 311,403 L 311,402 L 312,401 Z" fill="#003C20" fill-rule="evenodd" stroke="#000000" stroke-width="1.5"/>
<path d="M 312,399 Z" fill="#003C20" fill-rule="evenodd" stroke="#000000" stroke-width="1.5"/>
<path d="M 187,399 L 187,400 L 188,401 L 189,400 L 188,399 Z" fill="#003C20" fill-rule="evenodd" stroke="#000000" stroke-width="1.5"/>
<path d="M 181,399 L 181,400 L 180,401 L 180,406 L 182,408 L 182,409 L 183,410 L 183,411 L 185,413 L 184,414 L 184,415 L 185,414 L 186,414 L 186,409 L 185,408 L 185,406 L 184,405 L 183,405 L 182,404 L 182,403 L 181,402 Z" fill="#003C20" fill-rule="evenodd" stroke="#000000" stroke-width="1.5"/>
<path d="M 171,399 L 170,400 L 171,401 L 170,400 Z" fill="#003C20" fill-rule="evenodd" stroke="#000000" stroke-width="1.5"/>
<path d="M 312,397 L 313,397 Z" fill="#003C20" fill-rule="evenodd" stroke="#000000" stroke-width="1.5"/>
<path d="M 238,397 L 237,398 Z" fill="#003C20" fill-rule="evenodd" stroke="#000000" stroke-width="1.5"/>
<path d="M 201,397 L 200,398 L 199,398 L 196,401 L 197,402 L 197,403 L 195,405 L 196,406 L 195,407 L 195,409 L 194,410 L 194,412 L 192,414 L 193,415 L 193,416 L 192,417 L 193,418 L 193,419 L 196,419 L 197,418 L 196,418 L 195,417 L 195,415 L 196,414 L 195,413 L 197,411 L 196,410 L 197,409 L 197,407 L 199,405 L 198,404 L 199,403 L 199,402 L 200,401 L 200,398 Z" fill="#003C20" fill-rule="evenodd" stroke="#000000" stroke-width="1.5"/>
<path d="M 242,396 L 241,397 L 240,397 L 241,398 L 241,405 L 240,406 L 240,409 L 239,410 L 240,411 L 240,412 L 239,413 L 239,418 L 238,419 L 238,420 L 237,421 L 241,421 L 241,418 L 242,417 L 241,416 L 241,415 L 242,414 L 242,409 L 243,408 L 243,405 L 244,404 L 243,403 L 244,402 L 244,400 L 245,399 L 244,398 L 244,397 L 245,396 Z" fill="#003C20" fill-rule="evenodd" stroke="#000000" stroke-width="1.5"/>
<path d="M 313,395 Z" fill="#003C20" fill-rule="evenodd" stroke="#000000" stroke-width="1.5"/>
<path d="M 265,395 L 266,396 L 267,396 L 268,397 L 268,399 L 269,400 L 269,409 L 268,410 L 268,413 L 267,414 L 267,415 L 264,418 L 264,419 L 262,421 L 263,420 L 264,420 L 269,415 L 269,414 L 270,413 L 270,412 L 271,411 L 271,399 L 270,398 L 270,396 L 269,396 L 268,395 Z" fill="#003C20" fill-rule="evenodd" stroke="#000000" stroke-width="1.5"/>
<path d="M 260,395 L 255,400 L 256,401 L 255,402 L 255,404 L 256,405 L 256,406 L 258,408 L 261,408 L 258,405 L 258,398 L 260,396 Z" fill="#003C20" fill-rule="evenodd" stroke="#000000" stroke-width="1.5"/>
<path d="M 315,393 Z" fill="#003C20" fill-rule="evenodd" stroke="#000000" stroke-width="1.5"/>
<path d="M 286,391 L 285,392 L 284,392 L 282,394 L 281,394 L 282,394 L 283,393 L 284,393 L 285,392 L 286,393 L 287,393 L 291,397 L 291,400 L 290,401 L 291,402 L 291,403 L 290,404 L 290,406 L 289,407 L 289,408 L 287,410 L 288,410 L 289,409 L 289,407 L 291,405 L 291,404 L 292,403 L 292,402 L 293,401 L 293,400 L 294,399 L 293,398 L 293,394 L 292,393 L 292,392 L 290,392 L 289,391 L 288,392 L 287,391 Z" fill="#003C20" fill-rule="evenodd" stroke="#000000" stroke-width="1.5"/>
<path d="M 176,388 L 177,389 L 177,391 L 178,391 L 177,390 L 178,389 L 178,388 Z" fill="#003C20" fill-rule="evenodd" stroke="#000000" stroke-width="1.5"/>
<path d="M 173,387 Z" fill="#003C20" fill-rule="evenodd" stroke="#000000" stroke-width="1.5"/>
<path d="M 314,386 L 313,387 L 312,387 L 311,388 L 307,388 L 306,389 L 302,389 L 301,390 L 300,390 L 301,391 L 301,392 L 300,393 L 301,393 L 303,391 L 304,391 L 305,390 L 306,391 L 307,390 L 309,390 L 310,389 L 314,389 L 315,390 L 315,391 L 315,389 L 317,387 L 316,386 L 315,387 Z" fill="#003C20" fill-rule="evenodd" stroke="#000000" stroke-width="1.5"/>
<path d="M 163,384 L 163,387 L 161,389 L 161,390 L 160,391 L 161,392 L 160,393 L 160,394 L 159,395 L 159,396 L 158,397 L 158,399 L 157,400 L 157,401 L 156,402 L 156,403 L 155,404 L 155,405 L 154,406 L 154,407 L 153,408 L 153,409 L 154,410 L 157,410 L 156,409 L 157,408 L 157,406 L 158,405 L 158,404 L 160,402 L 160,400 L 161,399 L 161,398 L 162,397 L 162,395 L 164,393 L 164,392 L 165,391 L 164,390 L 165,389 L 165,388 L 168,385 L 167,386 L 166,385 L 164,385 Z" fill="#003C20" fill-rule="evenodd" stroke="#000000" stroke-width="1.5"/>
<path d="M 149,30 L 148,31 L 147,31 L 146,32 L 145,31 L 143,33 L 142,33 L 141,34 L 140,34 L 139,35 L 138,34 L 138,35 L 137,36 L 136,35 L 133,38 L 131,38 L 130,39 L 129,39 L 128,40 L 126,40 L 125,41 L 125,42 L 124,43 L 123,42 L 122,43 L 121,43 L 120,44 L 118,44 L 118,45 L 117,46 L 116,46 L 115,47 L 113,47 L 110,50 L 108,50 L 108,51 L 107,52 L 106,52 L 105,53 L 104,53 L 102,55 L 100,55 L 100,56 L 99,57 L 97,57 L 97,58 L 96,59 L 94,59 L 94,60 L 93,61 L 92,61 L 89,64 L 87,64 L 87,65 L 86,66 L 85,66 L 80,71 L 79,71 L 78,72 L 77,72 L 77,73 L 70,80 L 69,80 L 65,84 L 65,85 L 60,90 L 59,90 L 59,91 L 58,92 L 58,93 L 56,95 L 55,95 L 55,96 L 53,98 L 53,99 L 52,100 L 51,100 L 51,101 L 50,102 L 50,103 L 48,105 L 48,106 L 46,108 L 46,109 L 44,111 L 44,112 L 43,113 L 43,114 L 41,116 L 41,117 L 40,118 L 40,119 L 39,120 L 39,121 L 38,122 L 38,123 L 37,124 L 37,125 L 35,127 L 35,130 L 34,131 L 34,132 L 32,134 L 33,135 L 32,136 L 32,137 L 31,138 L 31,140 L 30,141 L 30,142 L 29,143 L 29,147 L 28,148 L 28,150 L 27,151 L 27,152 L 26,153 L 27,154 L 26,155 L 26,157 L 25,158 L 26,159 L 25,160 L 25,161 L 24,162 L 25,163 L 25,165 L 24,166 L 24,168 L 23,169 L 24,170 L 24,171 L 23,172 L 23,177 L 22,178 L 23,179 L 23,186 L 22,187 L 22,190 L 23,191 L 23,192 L 22,193 L 22,194 L 23,195 L 22,196 L 22,198 L 23,199 L 23,203 L 22,204 L 23,205 L 23,208 L 24,209 L 24,210 L 23,211 L 24,212 L 24,214 L 25,215 L 25,221 L 26,222 L 26,224 L 27,225 L 26,226 L 28,228 L 28,231 L 29,232 L 29,235 L 30,236 L 30,238 L 31,239 L 31,240 L 32,241 L 32,243 L 33,244 L 33,245 L 35,247 L 35,249 L 36,250 L 36,251 L 37,252 L 37,254 L 38,255 L 38,256 L 40,258 L 40,259 L 41,260 L 41,261 L 42,262 L 42,263 L 45,266 L 45,268 L 46,268 L 47,269 L 47,270 L 49,272 L 49,273 L 51,275 L 51,276 L 52,276 L 53,277 L 53,278 L 54,279 L 54,280 L 60,286 L 60,287 L 76,303 L 77,303 L 83,309 L 84,309 L 87,312 L 88,312 L 90,314 L 91,314 L 94,317 L 95,317 L 97,319 L 98,319 L 100,321 L 101,321 L 103,323 L 104,323 L 106,325 L 107,325 L 108,326 L 109,326 L 111,328 L 112,328 L 113,329 L 114,329 L 115,330 L 116,330 L 118,332 L 119,332 L 120,333 L 121,333 L 122,334 L 123,334 L 124,335 L 126,335 L 128,337 L 129,337 L 130,338 L 132,338 L 133,339 L 134,339 L 135,340 L 137,340 L 138,341 L 139,341 L 140,342 L 141,342 L 142,343 L 144,343 L 145,344 L 147,344 L 148,345 L 150,345 L 151,346 L 153,346 L 154,347 L 156,347 L 157,348 L 158,348 L 159,349 L 162,349 L 163,350 L 166,350 L 167,351 L 169,351 L 170,352 L 174,352 L 175,353 L 178,353 L 179,354 L 182,354 L 183,355 L 187,355 L 188,356 L 193,356 L 194,357 L 201,357 L 202,358 L 209,358 L 210,359 L 221,359 L 222,360 L 223,359 L 224,360 L 226,360 L 227,359 L 228,360 L 250,360 L 251,359 L 252,360 L 253,359 L 265,359 L 266,358 L 273,358 L 274,357 L 281,357 L 282,356 L 284,356 L 285,355 L 291,355 L 292,354 L 294,354 L 295,353 L 296,354 L 297,353 L 300,353 L 301,352 L 302,352 L 303,351 L 304,352 L 305,351 L 308,351 L 309,350 L 311,350 L 312,349 L 315,349 L 316,348 L 318,348 L 319,347 L 320,347 L 321,346 L 324,346 L 325,345 L 326,345 L 327,344 L 329,344 L 330,343 L 331,343 L 332,342 L 333,342 L 334,341 L 337,341 L 339,339 L 341,339 L 343,337 L 345,337 L 346,336 L 347,336 L 348,335 L 350,335 L 352,333 L 353,333 L 354,332 L 356,332 L 359,329 L 361,329 L 362,328 L 363,328 L 363,327 L 364,326 L 365,326 L 366,325 L 367,325 L 368,324 L 369,324 L 370,323 L 371,323 L 373,321 L 374,321 L 374,320 L 375,319 L 377,319 L 379,317 L 380,317 L 380,316 L 381,315 L 382,315 L 383,314 L 384,314 L 387,311 L 388,311 L 388,310 L 389,309 L 390,309 L 392,307 L 393,307 L 394,306 L 394,305 L 395,304 L 396,304 L 398,302 L 399,302 L 399,301 L 400,300 L 401,300 L 406,295 L 406,294 L 407,293 L 408,293 L 408,292 L 415,285 L 415,284 L 420,279 L 420,278 L 422,276 L 422,275 L 425,272 L 425,271 L 427,269 L 427,268 L 429,266 L 429,265 L 431,263 L 431,262 L 432,261 L 432,260 L 433,259 L 433,258 L 434,257 L 434,256 L 435,255 L 435,254 L 437,252 L 437,250 L 438,249 L 438,248 L 439,247 L 439,245 L 440,244 L 440,243 L 441,242 L 441,240 L 442,239 L 442,238 L 443,237 L 443,235 L 444,234 L 444,232 L 445,231 L 445,228 L 446,227 L 446,224 L 447,223 L 447,219 L 448,218 L 448,213 L 449,212 L 449,204 L 450,203 L 450,183 L 449,182 L 449,172 L 448,171 L 448,166 L 447,165 L 447,160 L 446,159 L 446,155 L 445,154 L 445,151 L 444,150 L 444,148 L 443,147 L 443,145 L 442,144 L 442,142 L 441,141 L 441,139 L 440,138 L 440,137 L 439,136 L 439,134 L 438,133 L 438,132 L 437,131 L 437,130 L 436,129 L 436,127 L 435,126 L 435,125 L 434,124 L 434,123 L 433,122 L 433,121 L 431,119 L 431,118 L 430,117 L 430,116 L 429,115 L 429,114 L 427,112 L 427,111 L 425,109 L 425,108 L 423,106 L 423,105 L 421,103 L 421,102 L 417,98 L 417,97 L 412,92 L 412,91 L 411,91 L 410,90 L 410,89 L 397,76 L 396,76 L 395,75 L 395,74 L 394,74 L 391,71 L 390,71 L 389,70 L 389,69 L 388,69 L 387,68 L 386,68 L 384,66 L 384,65 L 383,65 L 381,63 L 380,63 L 377,60 L 375,60 L 371,56 L 369,56 L 368,55 L 368,54 L 367,54 L 366,53 L 365,53 L 363,51 L 361,51 L 360,50 L 360,49 L 359,49 L 357,47 L 355,47 L 353,45 L 351,45 L 350,44 L 349,44 L 348,43 L 347,43 L 346,42 L 345,42 L 344,41 L 343,41 L 342,40 L 341,40 L 340,39 L 339,39 L 338,38 L 337,38 L 336,37 L 335,37 L 334,36 L 333,36 L 332,35 L 331,35 L 329,33 L 327,33 L 326,32 L 325,33 L 325,34 L 324,35 L 324,37 L 323,38 L 323,39 L 321,41 L 321,42 L 320,43 L 321,44 L 320,45 L 320,46 L 318,48 L 319,49 L 317,51 L 317,53 L 315,55 L 316,56 L 315,57 L 315,58 L 314,59 L 314,60 L 313,61 L 313,62 L 312,63 L 312,64 L 311,65 L 311,66 L 313,68 L 315,68 L 318,71 L 319,71 L 321,73 L 322,73 L 323,74 L 324,74 L 325,75 L 325,76 L 326,77 L 327,77 L 336,86 L 336,87 L 337,87 L 338,88 L 338,89 L 341,92 L 341,93 L 343,95 L 343,96 L 345,98 L 345,99 L 347,101 L 347,102 L 348,103 L 348,104 L 349,105 L 349,106 L 350,107 L 350,109 L 352,111 L 352,112 L 353,113 L 353,116 L 354,117 L 354,120 L 355,121 L 355,124 L 356,125 L 356,131 L 357,132 L 357,142 L 356,143 L 356,147 L 355,148 L 355,153 L 354,154 L 354,156 L 353,157 L 353,158 L 352,159 L 352,161 L 351,162 L 350,162 L 350,163 L 349,164 L 349,166 L 347,168 L 347,169 L 346,170 L 345,170 L 345,171 L 340,176 L 339,176 L 339,177 L 338,178 L 337,178 L 335,180 L 334,180 L 332,182 L 331,182 L 330,183 L 329,182 L 327,184 L 325,184 L 324,185 L 322,185 L 321,186 L 315,186 L 314,187 L 313,186 L 312,186 L 311,187 L 310,186 L 309,186 L 308,187 L 307,187 L 306,186 L 303,186 L 302,187 L 301,186 L 299,186 L 298,185 L 297,186 L 296,185 L 293,185 L 292,184 L 291,184 L 290,183 L 288,183 L 287,182 L 286,182 L 285,181 L 284,181 L 282,179 L 281,179 L 280,178 L 279,178 L 271,170 L 271,169 L 269,167 L 269,166 L 268,165 L 268,164 L 267,163 L 267,158 L 266,157 L 266,151 L 265,150 L 265,146 L 266,145 L 266,143 L 267,142 L 267,141 L 268,140 L 268,139 L 270,137 L 270,136 L 275,131 L 276,131 L 281,126 L 281,125 L 280,124 L 280,123 L 279,122 L 279,120 L 278,119 L 278,117 L 275,120 L 274,120 L 271,123 L 270,123 L 269,124 L 268,124 L 266,126 L 265,126 L 264,127 L 263,127 L 262,128 L 261,128 L 260,129 L 258,129 L 257,130 L 256,130 L 255,131 L 252,131 L 251,132 L 248,132 L 247,133 L 228,133 L 227,132 L 223,132 L 222,131 L 220,131 L 219,130 L 218,130 L 217,129 L 215,129 L 214,128 L 213,128 L 212,127 L 211,127 L 210,126 L 209,126 L 208,125 L 207,125 L 206,124 L 205,124 L 202,121 L 201,121 L 200,120 L 199,120 L 198,119 L 198,118 L 196,116 L 196,118 L 195,119 L 194,119 L 195,120 L 193,122 L 193,123 L 192,124 L 193,125 L 193,126 L 194,127 L 195,127 L 198,130 L 199,130 L 200,131 L 200,132 L 203,135 L 203,136 L 204,136 L 205,137 L 205,139 L 207,141 L 207,143 L 208,144 L 207,145 L 208,146 L 207,147 L 207,149 L 208,150 L 207,151 L 207,153 L 206,154 L 207,155 L 207,157 L 206,158 L 206,162 L 205,163 L 205,164 L 204,165 L 204,166 L 203,167 L 202,167 L 202,169 L 200,171 L 199,171 L 199,172 L 198,173 L 197,173 L 196,174 L 196,175 L 195,176 L 194,176 L 191,179 L 190,179 L 189,180 L 188,179 L 188,180 L 187,181 L 185,181 L 184,182 L 183,182 L 182,183 L 181,182 L 180,183 L 179,183 L 178,184 L 173,184 L 172,185 L 171,184 L 170,185 L 161,185 L 160,184 L 159,184 L 158,185 L 157,184 L 155,184 L 154,183 L 153,184 L 152,183 L 150,183 L 149,182 L 146,182 L 145,181 L 144,181 L 143,180 L 142,180 L 141,179 L 140,179 L 138,177 L 137,177 L 135,175 L 134,175 L 129,170 L 129,169 L 125,165 L 125,164 L 123,162 L 123,161 L 122,160 L 122,159 L 121,158 L 121,156 L 120,155 L 120,154 L 119,153 L 119,150 L 118,149 L 118,146 L 117,145 L 117,123 L 118,122 L 118,119 L 119,118 L 119,115 L 120,114 L 120,112 L 121,111 L 121,109 L 122,108 L 122,107 L 123,106 L 123,105 L 124,104 L 124,103 L 125,102 L 125,101 L 127,99 L 127,98 L 129,96 L 129,95 L 131,93 L 131,92 L 135,88 L 135,87 L 148,74 L 149,74 L 151,72 L 152,72 L 155,69 L 156,69 L 158,67 L 159,67 L 160,66 L 162,66 L 163,65 L 164,65 L 164,63 L 163,62 L 163,60 L 162,59 L 162,58 L 161,57 L 161,56 L 160,55 L 160,54 L 159,53 L 159,52 L 158,51 L 158,49 L 157,48 L 157,47 L 156,46 L 156,43 L 154,41 L 155,40 L 154,39 L 154,38 L 152,36 L 152,33 L 150,31 L 150,30 Z M 139,50 L 140,49 L 142,49 L 144,51 L 144,52 L 145,53 L 145,56 L 146,57 L 146,60 L 144,62 L 143,62 L 141,64 L 140,64 L 139,65 L 138,65 L 137,66 L 136,66 L 134,68 L 133,68 L 132,69 L 131,69 L 129,71 L 128,71 L 126,73 L 125,73 L 123,75 L 122,75 L 119,78 L 118,78 L 116,80 L 115,80 L 112,83 L 111,83 L 107,87 L 106,87 L 99,94 L 98,94 L 84,108 L 84,109 L 79,114 L 79,115 L 76,118 L 76,119 L 74,121 L 74,122 L 72,124 L 72,125 L 70,127 L 70,128 L 69,129 L 69,130 L 67,132 L 67,133 L 66,134 L 66,135 L 65,136 L 65,137 L 64,138 L 64,139 L 63,140 L 63,141 L 62,142 L 62,144 L 61,145 L 61,146 L 60,147 L 60,149 L 59,150 L 59,152 L 58,153 L 58,155 L 57,156 L 57,158 L 56,159 L 56,162 L 55,163 L 55,166 L 54,167 L 54,172 L 53,173 L 53,180 L 52,181 L 52,198 L 53,199 L 53,205 L 54,206 L 54,211 L 55,212 L 55,214 L 56,215 L 56,218 L 57,219 L 57,220 L 58,221 L 58,223 L 59,224 L 59,225 L 60,226 L 60,228 L 62,230 L 62,232 L 64,234 L 64,235 L 65,236 L 65,237 L 67,239 L 67,240 L 70,243 L 70,244 L 73,247 L 73,248 L 84,259 L 85,259 L 88,262 L 89,262 L 91,264 L 92,264 L 94,266 L 95,266 L 96,267 L 97,267 L 98,268 L 99,268 L 100,269 L 101,269 L 102,270 L 103,270 L 104,271 L 105,271 L 106,272 L 108,272 L 109,273 L 110,273 L 111,274 L 113,274 L 114,275 L 116,275 L 117,276 L 119,276 L 120,277 L 123,277 L 124,278 L 130,278 L 131,279 L 140,279 L 141,280 L 142,279 L 145,279 L 146,280 L 148,280 L 149,279 L 158,279 L 159,278 L 165,278 L 166,277 L 169,277 L 170,276 L 173,276 L 174,275 L 177,275 L 178,274 L 180,274 L 181,273 L 182,273 L 183,272 L 185,272 L 186,271 L 188,271 L 189,270 L 190,270 L 191,269 L 192,269 L 193,268 L 194,268 L 195,267 L 196,267 L 197,266 L 198,266 L 199,265 L 200,265 L 201,264 L 202,264 L 203,263 L 204,263 L 206,261 L 207,261 L 209,259 L 210,259 L 212,257 L 213,257 L 216,254 L 217,254 L 220,251 L 221,251 L 226,246 L 227,246 L 235,238 L 242,245 L 243,245 L 251,253 L 252,253 L 256,257 L 257,257 L 259,259 L 260,259 L 262,261 L 263,261 L 265,263 L 266,263 L 268,265 L 269,265 L 270,266 L 271,266 L 273,268 L 274,268 L 275,269 L 276,269 L 277,270 L 279,270 L 281,272 L 283,272 L 284,273 L 285,273 L 286,274 L 288,274 L 289,275 L 290,275 L 291,276 L 294,276 L 295,277 L 297,277 L 298,278 L 300,278 L 301,279 L 304,279 L 305,280 L 310,280 L 311,281 L 317,281 L 318,282 L 336,282 L 337,281 L 343,281 L 344,280 L 349,280 L 350,279 L 353,279 L 354,278 L 356,278 L 357,277 L 359,277 L 360,276 L 362,276 L 363,275 L 365,275 L 366,274 L 367,274 L 368,273 L 369,273 L 370,272 L 371,272 L 372,271 L 373,271 L 374,270 L 375,270 L 376,269 L 377,269 L 379,267 L 380,267 L 382,265 L 383,265 L 386,262 L 387,262 L 392,257 L 393,257 L 393,256 L 395,254 L 396,254 L 397,253 L 397,252 L 401,248 L 401,247 L 404,244 L 404,243 L 406,241 L 406,240 L 408,238 L 408,237 L 409,236 L 409,235 L 410,234 L 410,233 L 411,232 L 411,231 L 412,230 L 412,229 L 413,228 L 413,226 L 414,225 L 414,224 L 415,223 L 415,220 L 416,219 L 416,218 L 417,217 L 417,212 L 418,211 L 418,208 L 419,207 L 419,197 L 420,196 L 420,188 L 419,187 L 420,186 L 419,185 L 419,176 L 418,175 L 418,170 L 417,169 L 417,165 L 416,164 L 416,162 L 415,161 L 415,158 L 414,157 L 414,155 L 413,154 L 413,152 L 412,151 L 412,150 L 411,149 L 411,147 L 410,146 L 410,145 L 409,144 L 409,142 L 407,140 L 407,138 L 405,136 L 405,135 L 404,134 L 404,133 L 403,132 L 403,131 L 402,130 L 402,129 L 400,127 L 400,126 L 398,124 L 398,123 L 395,120 L 395,119 L 393,117 L 393,116 L 389,112 L 389,111 L 388,111 L 386,109 L 386,108 L 371,93 L 370,93 L 363,86 L 362,86 L 359,83 L 358,83 L 355,80 L 354,80 L 351,77 L 350,77 L 348,75 L 347,75 L 345,73 L 344,73 L 342,71 L 341,71 L 339,69 L 338,69 L 337,68 L 336,68 L 334,66 L 333,66 L 331,64 L 330,64 L 328,62 L 329,61 L 329,59 L 330,58 L 330,56 L 331,55 L 331,54 L 332,53 L 332,52 L 333,51 L 334,52 L 336,52 L 339,55 L 340,55 L 341,56 L 343,56 L 345,58 L 346,58 L 349,61 L 350,61 L 351,62 L 352,62 L 353,63 L 354,63 L 356,65 L 357,65 L 360,68 L 361,68 L 363,70 L 364,70 L 367,73 L 368,73 L 371,76 L 372,76 L 377,81 L 378,81 L 387,90 L 388,90 L 397,99 L 397,100 L 403,106 L 403,107 L 406,110 L 406,111 L 409,114 L 409,115 L 411,117 L 411,118 L 413,120 L 413,121 L 414,122 L 414,123 L 416,125 L 416,126 L 417,127 L 417,128 L 418,129 L 418,130 L 419,131 L 419,132 L 420,133 L 420,134 L 421,135 L 421,136 L 422,137 L 422,138 L 423,139 L 423,140 L 424,141 L 424,143 L 425,144 L 425,145 L 426,146 L 426,148 L 427,149 L 427,150 L 428,151 L 428,154 L 429,155 L 429,157 L 430,158 L 430,161 L 431,162 L 431,166 L 432,167 L 432,172 L 433,173 L 433,181 L 434,182 L 434,201 L 433,202 L 433,210 L 432,211 L 432,216 L 431,217 L 431,220 L 430,221 L 430,224 L 429,225 L 429,227 L 428,228 L 428,231 L 427,232 L 427,233 L 426,234 L 426,236 L 425,237 L 425,238 L 424,239 L 424,241 L 423,242 L 423,243 L 422,244 L 422,245 L 421,246 L 421,247 L 420,248 L 420,250 L 418,252 L 418,253 L 417,254 L 417,255 L 416,256 L 416,257 L 414,259 L 414,260 L 412,262 L 412,263 L 411,264 L 411,265 L 409,267 L 409,268 L 406,271 L 406,272 L 401,277 L 401,278 L 381,298 L 380,298 L 375,303 L 374,303 L 372,305 L 371,305 L 371,306 L 370,307 L 369,307 L 368,308 L 367,308 L 365,310 L 364,310 L 362,312 L 361,312 L 358,315 L 356,315 L 354,317 L 353,317 L 351,319 L 349,319 L 348,320 L 347,320 L 345,322 L 344,322 L 343,323 L 341,323 L 340,324 L 339,324 L 338,325 L 337,325 L 336,326 L 335,326 L 333,328 L 330,328 L 328,330 L 327,330 L 326,331 L 323,331 L 321,333 L 319,333 L 318,334 L 316,334 L 315,335 L 313,335 L 312,336 L 310,336 L 309,337 L 307,337 L 306,338 L 304,338 L 303,339 L 300,339 L 299,340 L 298,339 L 297,340 L 296,340 L 295,341 L 291,341 L 290,342 L 287,342 L 286,343 L 281,343 L 280,344 L 279,343 L 278,344 L 276,344 L 275,345 L 274,344 L 273,345 L 268,345 L 267,346 L 266,345 L 264,345 L 263,346 L 257,346 L 256,347 L 249,347 L 248,346 L 247,347 L 230,347 L 229,346 L 228,347 L 227,347 L 226,346 L 225,347 L 220,347 L 219,346 L 211,346 L 210,345 L 209,346 L 208,346 L 207,345 L 203,345 L 202,344 L 201,345 L 200,344 L 196,344 L 195,343 L 194,344 L 193,343 L 189,343 L 188,342 L 186,342 L 185,341 L 180,341 L 179,340 L 177,340 L 176,339 L 172,339 L 171,338 L 168,338 L 167,337 L 165,337 L 164,336 L 162,336 L 161,335 L 159,335 L 158,334 L 157,334 L 156,333 L 153,333 L 151,331 L 148,331 L 146,329 L 143,329 L 141,327 L 140,327 L 139,326 L 138,326 L 137,325 L 136,325 L 135,324 L 133,324 L 132,323 L 131,323 L 130,322 L 129,322 L 127,320 L 126,320 L 125,319 L 124,319 L 123,318 L 122,318 L 121,317 L 119,317 L 117,315 L 116,315 L 114,313 L 113,313 L 111,311 L 110,311 L 108,309 L 107,309 L 105,307 L 104,307 L 101,304 L 100,304 L 97,301 L 96,301 L 91,296 L 90,296 L 73,279 L 73,278 L 67,272 L 67,271 L 64,268 L 64,267 L 62,265 L 62,264 L 60,262 L 60,261 L 58,259 L 58,258 L 57,257 L 57,256 L 55,254 L 55,253 L 54,252 L 54,251 L 53,250 L 53,249 L 52,248 L 52,247 L 51,246 L 51,245 L 50,244 L 50,243 L 49,242 L 49,241 L 48,240 L 48,239 L 47,238 L 47,236 L 46,235 L 46,233 L 45,232 L 45,230 L 44,229 L 44,228 L 43,227 L 43,224 L 42,223 L 42,220 L 41,219 L 41,215 L 40,214 L 40,211 L 39,210 L 39,204 L 38,203 L 38,179 L 39,178 L 38,177 L 39,176 L 39,170 L 40,169 L 40,165 L 41,164 L 40,163 L 41,162 L 41,158 L 42,157 L 42,156 L 43,155 L 43,152 L 44,151 L 44,149 L 45,148 L 45,146 L 46,145 L 46,144 L 47,143 L 47,141 L 48,140 L 48,138 L 50,136 L 50,135 L 51,134 L 51,132 L 53,130 L 53,128 L 54,127 L 54,126 L 55,125 L 55,124 L 57,122 L 57,121 L 59,119 L 59,118 L 60,117 L 60,116 L 62,114 L 62,113 L 63,112 L 63,111 L 64,110 L 65,110 L 65,109 L 66,108 L 66,107 L 67,106 L 68,106 L 69,105 L 69,104 L 72,101 L 72,100 L 73,99 L 74,99 L 75,98 L 75,97 L 87,85 L 88,85 L 90,83 L 90,82 L 91,81 L 92,81 L 94,79 L 95,79 L 96,78 L 96,77 L 97,76 L 99,76 L 100,75 L 100,74 L 101,73 L 102,73 L 104,71 L 105,71 L 107,69 L 108,69 L 111,66 L 112,66 L 113,65 L 114,65 L 117,62 L 118,62 L 120,60 L 121,60 L 122,59 L 124,59 L 124,58 L 125,57 L 126,57 L 127,56 L 128,56 L 129,55 L 130,55 L 131,54 L 132,54 L 134,52 L 136,52 L 138,50 Z" fill="#003C20" fill-rule="evenodd" stroke="#000000" stroke-width="2.5"/>
<path d="M 230,28 L 229,29 L 228,29 L 227,30 L 224,30 L 223,31 L 222,30 L 220,32 L 219,32 L 218,33 L 217,33 L 216,34 L 215,34 L 214,35 L 212,35 L 212,36 L 211,37 L 209,37 L 209,38 L 206,41 L 205,41 L 202,44 L 202,45 L 200,47 L 199,47 L 199,49 L 198,50 L 197,50 L 197,52 L 196,53 L 196,54 L 195,55 L 195,56 L 193,58 L 193,61 L 192,62 L 192,65 L 191,66 L 191,73 L 190,74 L 190,79 L 191,80 L 191,84 L 192,85 L 192,88 L 193,89 L 192,90 L 194,92 L 194,95 L 195,96 L 195,97 L 197,99 L 197,100 L 199,102 L 199,103 L 204,108 L 204,109 L 205,109 L 206,110 L 206,111 L 207,111 L 209,113 L 210,113 L 212,115 L 213,115 L 215,117 L 216,117 L 217,118 L 218,118 L 219,119 L 221,119 L 222,120 L 225,120 L 226,121 L 228,121 L 229,122 L 247,122 L 248,121 L 251,121 L 252,120 L 254,120 L 255,119 L 257,119 L 258,118 L 259,118 L 260,117 L 261,117 L 262,116 L 263,116 L 265,114 L 266,114 L 268,112 L 269,112 L 275,106 L 275,105 L 279,101 L 279,100 L 280,99 L 280,98 L 281,97 L 281,96 L 282,95 L 282,94 L 283,93 L 283,91 L 284,90 L 284,88 L 285,87 L 285,82 L 286,81 L 286,69 L 285,68 L 285,64 L 284,63 L 284,61 L 283,60 L 283,58 L 282,57 L 282,56 L 281,55 L 281,53 L 278,50 L 278,49 L 276,47 L 276,46 L 269,39 L 268,39 L 267,38 L 267,37 L 265,37 L 264,36 L 264,35 L 262,35 L 261,34 L 260,34 L 258,32 L 256,32 L 254,30 L 253,31 L 252,30 L 251,30 L 250,29 L 249,30 L 248,29 L 243,29 L 242,28 L 235,28 L 234,29 L 231,29 Z" fill="#003C20" fill-rule="evenodd" stroke="#000000" stroke-width="2.5"/>
</svg>
